        <svg viewBox="8 7.485 502.587 148.889" xmlns="http://www.w3.org/2000/svg">
          <g fill="none" stroke="black" stroke-width="1" fill-rule="evenodd" stroke-linecap="square" stroke-linejoin="bevel">
            <g fill="#000000" fill-opacity="1" stroke="#000000" stroke-opacity="1" stroke-width="1" stroke-linecap="square" stroke-linejoin="miter" stroke-miterlimit="2" transform="matrix(1,0,0,1,0,0)"/>
            <g fill="#000000" fill-opacity="1" stroke="#000000" stroke-opacity="1" stroke-width="1" stroke-linecap="square" stroke-linejoin="miter" stroke-miterlimit="2" transform="matrix(1,0,0,1,0,0)"/>
            <g fill="#000000" fill-opacity="1" stroke="#000000" stroke-opacity="1" stroke-width="1" stroke-linecap="square" stroke-linejoin="miter" stroke-miterlimit="2" transform="matrix(1,0,0,1,0,0)"/>
            <g fill="#000000" fill-opacity="1" stroke="#000000" stroke-opacity="1" stroke-width="1" stroke-linecap="square" stroke-linejoin="miter" stroke-miterlimit="2" transform="matrix(1,0,0,1,0,0)"/>
            <g fill="#000000" fill-opacity="1" stroke="#000000" stroke-opacity="1" stroke-width="1" stroke-linecap="square" stroke-linejoin="miter" stroke-miterlimit="2" transform="matrix(0.999978,0,0,0.999978,8,8.00037)"/>
            <g fill="#000000" fill-opacity="1" stroke="#000000" stroke-opacity="1" stroke-width="1" stroke-linecap="square" stroke-linejoin="miter" stroke-miterlimit="2" transform="matrix(1.05349,0,0,1.05349,-13.0698,34.9463)"/>
            <g fill="#f41b22" fill-opacity="1" stroke="none" transform="matrix(1.05349, 0, 0, 1.05349, -13.0698, 52.079025)">
              <path vector-effect="none" fill-rule="nonzero" d="M68,30 C68,32.2091 66.2091,34 64,34 C61.7909,34 60,32.2091 60,30 C60,27.7909 61.7909,26 64,26 C66.2091,26 68,27.7909 68,30 "/>
            </g>
            <g fill="#000000" fill-opacity="1" stroke="#000000" stroke-opacity="1" stroke-width="1" stroke-linecap="square" stroke-linejoin="miter" stroke-miterlimit="2" transform="matrix(1.05349,0,0,1.05349,-13.0698,34.9463)"/>
            <g fill="#f41b22" fill-opacity="1" stroke="none" transform="matrix(1.05349, 0, 0, 1.05349, -13.0698, 52.079025)">
              <path vector-effect="none" fill-rule="nonzero" d="M40,30 C40,32.2091 38.2091,34 36,34 C33.7909,34 32,32.2091 32,30 C32,27.7909 33.7909,26 36,26 C38.2091,26 40,27.7909 40,30 "/>
            </g>
            <g fill="#000000" fill-opacity="1" stroke="#000000" stroke-opacity="1" stroke-width="1" stroke-linecap="square" stroke-linejoin="miter" stroke-miterlimit="2" transform="matrix(1.05349,0,0,1.05349,-13.0698,34.9463)"/>
            <g fill="#f41b22" fill-opacity="1" stroke="none" transform="matrix(1.05349, 0, 0, 1.05349, -13.0698, 52.079025)">
              <path vector-effect="none" fill-rule="nonzero" d="M55,64 C55,60.7 57.7,58 61,58 L61,68 C61,78.5 69.5,87 80,87 L80,10 C80,10 70,1 49.9,1 C29.9,1 20,10 20,10 L20,57 C20,80.2 38.8,99 62,99 L80,99 L80,93 C66.2,93 55,81.8 55,68 L55,64 M49.9,51 C35.1,51 26,43 26,38 L26,14 C49,14 49,39 50,42 C51,39 51,14 74,14 L74,38 C74,42.1 64.8,51 49.9,51 "/>
            </g>
            <g fill="#000000" fill-opacity="1" stroke="#000000" stroke-opacity="1" stroke-width="1" stroke-linecap="square" stroke-linejoin="miter" stroke-miterlimit="2" transform="matrix(1.05349,0,0,1.05349,-13.0698,34.9463)"/>
            <g fill="#000000" fill-opacity="1" stroke="#000000" stroke-opacity="1" stroke-width="1" stroke-linecap="square" stroke-linejoin="miter" stroke-miterlimit="2" transform="matrix(0.999978,0,0,0.999978,8,8.00037)"/>
            <g fill="#000000" fill-opacity="1" stroke="#000000" stroke-opacity="1" stroke-width="1" stroke-linecap="square" stroke-linejoin="miter" stroke-miterlimit="2" transform="matrix(5.53635,0,0,5.53635,70.1815,-67.294)"/>
            <g fill="#f6f6f6" fill-opacity="1" stroke="none" transform="matrix(5.53635,0,0,5.53635,70.1815,-67.294)">
              <path vector-effect="none" fill-rule="nonzero" d="M 12.36 13.6 C 16.8 13.6 19.48 16.12 19.48 20.8 L 19.48 25.84 C 19.48 30.12 16.84 33 12.36 33 L 9 33 L 9 39.64 C 9 39.84 8.84 40 8.64 40 L 4.04 40 C 3.88 40 3.76 39.84 3.76 39.64 L 3.76 13.96 C 3.76 13.76 3.88 13.6 4.04 13.6 L 12.36 13.6 M 14.24 24.64 L 14.24 22 C 14.24 19.24 12.96 18.96 10.16 18.96 L 9 18.96 L 9 27.76 L 10.16 27.76 C 12.36 27.76 14.24 27.36 14.24 24.64 M 17.08 25.56 L 17.08 20.56 C 17.08 16.16 13.68 15.8 11.84 15.8 L 6.44 15.8 C 6.36 15.8 6.2 15.92 6.2 16.04 L 6.2 37.56 C 6.2 37.84 6.68 37.84 6.68 37.56 L 6.68 30.76 L 11.48 30.76 C 15 30.76 17.08 29.52 17.08 25.56 M 6.68 16.32 L 11.84 16.32 C 16.28 16.32 16.56 19.24 16.56 20.56 L 16.56 25.56 C 16.56 29.64 14 30.2 11.48 30.2 L 6.68 30.2 L 6.68 16.32 M 37.84 30.76 L 37.84 13.96 C 37.84 13.76 38 13.6 38.2 13.6 L 42.76 13.6 C 42.96 13.6 43.12 13.76 43.12 13.96 L 43.12 32.04 C 43.12 37.8 39.96 40.4 34 40.4 C 28.36 40.4 24.84 38.16 24.84 32.04 L 24.84 13.96 C 24.84 13.76 25 13.6 25.2 13.6 L 29.8 13.6 C 30 13.6 30.16 13.76 30.16 13.96 L 30.16 30.76 C 30.16 34.24 32.12 35 33.76 35 L 34.24 35 C 36.72 35 37.84 33.32 37.84 30.76 M 27.32 16.16 L 27.32 31.72 C 27.32 35.32 29.76 37.92 33.56 37.92 L 34.56 37.92 C 38.36 37.92 40.84 35.2 40.84 31.72 L 40.84 16.16 C 40.84 15.8 40.36 15.76 40.36 16.16 L 40.36 31.72 C 40.36 35 38 37.4 34.56 37.4 L 33.56 37.4 C 30.2 37.4 27.8 35.24 27.8 31.72 L 27.8 16.16 C 27.8 15.8 27.32 15.8 27.32 16.16"/>
              <path vector-effect="none" fill-rule="nonzero" d="M 62.188 40.307 L 66.748 40.307 C 66.948 40.307 67.108 40.147 67.108 39.947 L 67.108 21.867 C 67.108 16.107 63.948 13.507 57.988 13.507 C 52.348 13.507 48.828 15.747 48.828 21.867 L 48.828 39.947 C 48.828 40.147 48.988 40.307 49.188 40.307 L 53.788 40.307 C 53.988 40.307 54.148 40.147 54.148 39.947 L 54.148 23.147 C 54.148 19.667 56.108 18.907 57.748 18.907 L 58.228 18.907 C 60.708 18.907 61.828 20.587 61.828 23.147 M 51.308 22.187 C 51.308 18.587 53.748 15.987 57.548 15.987 L 58.548 15.987 C 62.348 15.987 64.828 18.707 64.828 22.187 L 64.828 37.747 C 64.828 38.107 64.348 38.147 64.348 37.747 L 64.348 22.187 C 64.348 18.907 61.988 16.507 58.548 16.507 L 57.548 16.507 C 54.188 16.507 51.788 18.667 51.788 22.187 L 51.788 37.747 C 51.788 38.107 51.308 38.107 51.308 37.747 M 74.628 13.907 C 74.428 13.907 74.308 14.067 74.308 14.267 L 74.308 39.947 C 74.308 40.147 74.428 40.307 74.628 40.307 L 79.188 40.307 C 79.388 40.307 79.548 40.147 79.548 39.947 L 79.548 14.267 C 79.548 14.067 79.388 13.907 79.188 13.907 L 74.628 13.907 M 76.708 37.907 L 76.708 16.347 C 76.708 15.987 77.148 15.987 77.148 16.347 L 77.148 37.907 C 77.148 38.187 76.708 38.187 76.708 37.907"/>
            </g>
            <g fill="#000000" fill-opacity="1" stroke="#000000" stroke-opacity="1" stroke-width="1" stroke-linecap="square" stroke-linejoin="miter" stroke-miterlimit="2" transform="matrix(5.53635,0,0,5.53635,70.1815,-67.294)"/>
            <g fill="#000000" fill-opacity="1" stroke="#000000" stroke-opacity="1" stroke-width="1" stroke-linecap="square" stroke-linejoin="miter" stroke-miterlimit="2" transform="matrix(0.999978,0,0,0.999978,8,8.00037)"/>
            <g fill="#000000" fill-opacity="1" stroke="#000000" stroke-opacity="1" stroke-width="1" stroke-linecap="square" stroke-linejoin="miter" stroke-miterlimit="2" transform="matrix(0.999978,0,0,0.999978,8,8.00037)"/>
            <g fill="#000000" fill-opacity="1" stroke="#000000" stroke-opacity="1" stroke-width="1" stroke-linecap="square" stroke-linejoin="miter" stroke-miterlimit="2" transform="matrix(1,0,0,1,0,0)"/>
            <g fill="#000000" fill-opacity="1" stroke="#000000" stroke-opacity="1" stroke-width="1" stroke-linecap="square" stroke-linejoin="miter" stroke-miterlimit="2" transform="matrix(1,0,0,1,0,0)"/>
            <g fill="#000000" fill-opacity="1" stroke="#000000" stroke-opacity="1" stroke-width="1" stroke-linecap="square" stroke-linejoin="miter" stroke-miterlimit="2" transform="matrix(1,0,0,1,0,0)"/>
            <g fill="#000000" fill-opacity="1" stroke="#000000" stroke-opacity="1" stroke-width="1" stroke-linecap="square" stroke-linejoin="miter" stroke-miterlimit="2" transform="matrix(1,0,0,1,0,0)"/>
            <g fill="#000000" fill-opacity="1" stroke="#000000" stroke-opacity="1" stroke-width="1" stroke-linecap="square" stroke-linejoin="miter" stroke-miterlimit="2" transform="matrix(0.999978,0,0,0.999978,8,8.00037)"/>
            <g fill="#000000" fill-opacity="1" stroke="#000000" stroke-opacity="1" stroke-width="1" stroke-linecap="square" stroke-linejoin="miter" stroke-miterlimit="2" transform="matrix(0.999978,0,0,0.999978,8,8.00037)"/>
            <g fill="#000000" fill-opacity="1" stroke="#000000" stroke-opacity="1" stroke-width="1" stroke-linecap="square" stroke-linejoin="miter" stroke-miterlimit="2" transform="matrix(0.999978,0,0,0.999978,8,8.00037)"/>
            <g fill="#000000" fill-opacity="1" stroke="#000000" stroke-opacity="1" stroke-width="1" stroke-linecap="square" stroke-linejoin="miter" stroke-miterlimit="2" transform="matrix(0.999978,0,0,0.999978,8,8.00037)"/>
            <g fill="#000000" fill-opacity="1" stroke="#000000" stroke-opacity="1" stroke-width="1" stroke-linecap="square" stroke-linejoin="miter" stroke-miterlimit="2" transform="matrix(1,0,0,1,0,0)"/>
            <g fill="#000000" fill-opacity="1" stroke="#000000" stroke-opacity="1" stroke-width="1" stroke-linecap="square" stroke-linejoin="miter" stroke-miterlimit="2" transform="matrix(1,0,0,1,0,0)"/>
            <g fill="#000000" fill-opacity="1" stroke="#000000" stroke-opacity="1" stroke-width="1" stroke-linecap="square" stroke-linejoin="miter" stroke-miterlimit="2" transform="matrix(1,0,0,1,0,0)"/>
            <g fill="#000000" fill-opacity="1" stroke="#000000" stroke-opacity="1" stroke-width="1" stroke-linecap="square" stroke-linejoin="miter" stroke-miterlimit="2" transform="matrix(1,0,0,1,0,0)"/>
            <g fill="#000000" fill-opacity="1" stroke="#000000" stroke-opacity="1" stroke-width="1" stroke-linecap="square" stroke-linejoin="miter" stroke-miterlimit="2" transform="matrix(1,0,0,1,0,0)"/>
            <g fill="#000000" fill-opacity="1" stroke="#000000" stroke-opacity="1" stroke-width="1" stroke-linecap="square" stroke-linejoin="miter" stroke-miterlimit="2" transform="matrix(1,0,0,1,0,0)"/>
          </g>
        </svg>
